<svg xmlns="http://www.w3.org/2000/svg" width="900" height="540" viewBox="0 0 900 540">
<rect width="100%" height="100%" fill="white"/>
<text x="450.0" y="35" text-anchor="middle" font-family="Arial" font-size="20" font-weight="bold">headtail256_lr2e5: loss por passo</text>
<line x1="90" y1="455.0" x2="845" y2="455.0" stroke="#e8edf2"/>
<text x="78" y="460.0" text-anchor="end" font-family="Arial" font-size="13">0.998</text>
<line x1="90" y1="378.0" x2="845" y2="378.0" stroke="#e8edf2"/>
<text x="78" y="383.0" text-anchor="end" font-family="Arial" font-size="13">1.019</text>
<line x1="90" y1="301.0" x2="845" y2="301.0" stroke="#e8edf2"/>
<text x="78" y="306.0" text-anchor="end" font-family="Arial" font-size="13">1.040</text>
<line x1="90" y1="224.0" x2="845" y2="224.0" stroke="#e8edf2"/>
<text x="78" y="229.0" text-anchor="end" font-family="Arial" font-size="13">1.061</text>
<line x1="90" y1="147.0" x2="845" y2="147.0" stroke="#e8edf2"/>
<text x="78" y="152.0" text-anchor="end" font-family="Arial" font-size="13">1.082</text>
<line x1="90" y1="70.0" x2="845" y2="70.0" stroke="#e8edf2"/>
<text x="78" y="75.0" text-anchor="end" font-family="Arial" font-size="13">1.103</text>
<line x1="90.0" y1="70" x2="90.0" y2="455" stroke="#f1f3f5"/>
<text x="90.0" y="480" text-anchor="middle" font-family="Arial" font-size="13">3.8e+02</text>
<line x1="241.0" y1="70" x2="241.0" y2="455" stroke="#f1f3f5"/>
<text x="241.0" y="480" text-anchor="middle" font-family="Arial" font-size="13">7.7e+02</text>
<line x1="392.0" y1="70" x2="392.0" y2="455" stroke="#f1f3f5"/>
<text x="392.0" y="480" text-anchor="middle" font-family="Arial" font-size="13">1.2e+03</text>
<line x1="543.0" y1="70" x2="543.0" y2="455" stroke="#f1f3f5"/>
<text x="543.0" y="480" text-anchor="middle" font-family="Arial" font-size="13">1.5e+03</text>
<line x1="694.0" y1="70" x2="694.0" y2="455" stroke="#f1f3f5"/>
<text x="694.0" y="480" text-anchor="middle" font-family="Arial" font-size="13">1.9e+03</text>
<line x1="845.0" y1="70" x2="845.0" y2="455" stroke="#f1f3f5"/>
<text x="845.0" y="480" text-anchor="middle" font-family="Arial" font-size="13">2.3e+03</text>
<line x1="90" y1="455" x2="845" y2="455" stroke="#34495e" stroke-width="2"/>
<line x1="90" y1="70" x2="90" y2="455" stroke="#34495e" stroke-width="2"/>
<polyline points="90.0,102.1 241.0,172.4 392.0,231.5 503.7,230.9 543.0,366.1 694.0,422.9 845.0,376.3" fill="none" stroke="#1769aa" stroke-width="3"/>
<circle cx="90.0" cy="102.1" r="5" fill="#1769aa"/>
<circle cx="241.0" cy="172.4" r="5" fill="#1769aa"/>
<circle cx="392.0" cy="231.5" r="5" fill="#1769aa"/>
<circle cx="503.7" cy="230.9" r="5" fill="#1769aa"/>
<circle cx="543.0" cy="366.1" r="5" fill="#1769aa"/>
<circle cx="694.0" cy="422.9" r="5" fill="#1769aa"/>
<circle cx="845.0" cy="376.3" r="5" fill="#1769aa"/>
<circle cx="90" cy="518" r="5" fill="#1769aa"/>
<text x="102" y="523" font-family="Arial" font-size="13">Treino</text>
<polyline points="90.0,146.0 241.0,199.3 392.0,205.5 503.7,271.6 543.0,251.0 694.0,146.3 845.0,161.2" fill="none" stroke="#e07a26" stroke-width="3"/>
<circle cx="90.0" cy="146.0" r="5" fill="#e07a26"/>
<circle cx="241.0" cy="199.3" r="5" fill="#e07a26"/>
<circle cx="392.0" cy="205.5" r="5" fill="#e07a26"/>
<circle cx="503.7" cy="271.6" r="5" fill="#e07a26"/>
<circle cx="543.0" cy="251.0" r="5" fill="#e07a26"/>
<circle cx="694.0" cy="146.3" r="5" fill="#e07a26"/>
<circle cx="845.0" cy="161.2" r="5" fill="#e07a26"/>
<circle cx="305" cy="518" r="5" fill="#e07a26"/>
<text x="317" y="523" font-family="Arial" font-size="13">Validação</text>
<text x="450.0" y="492" text-anchor="middle" font-family="Arial" font-size="15">Passo do otimizador</text>
<text x="22" y="270.0" text-anchor="middle" transform="rotate(-90 22 270.0)" font-family="Arial" font-size="15">Loss</text>
</svg>
