<svg xmlns="http://www.w3.org/2000/svg" width="900" height="540" viewBox="0 0 900 540">
<rect width="100%" height="100%" fill="white"/>
<text x="450.0" y="35" text-anchor="middle" font-family="Arial" font-size="20" font-weight="bold">start512_lr2e5: loss por passo</text>
<line x1="90" y1="455.0" x2="845" y2="455.0" stroke="#e8edf2"/>
<text x="78" y="460.0" text-anchor="end" font-family="Arial" font-size="13">0.985</text>
<line x1="90" y1="378.0" x2="845" y2="378.0" stroke="#e8edf2"/>
<text x="78" y="383.0" text-anchor="end" font-family="Arial" font-size="13">1.007</text>
<line x1="90" y1="301.0" x2="845" y2="301.0" stroke="#e8edf2"/>
<text x="78" y="306.0" text-anchor="end" font-family="Arial" font-size="13">1.030</text>
<line x1="90" y1="224.0" x2="845" y2="224.0" stroke="#e8edf2"/>
<text x="78" y="229.0" text-anchor="end" font-family="Arial" font-size="13">1.052</text>
<line x1="90" y1="147.0" x2="845" y2="147.0" stroke="#e8edf2"/>
<text x="78" y="152.0" text-anchor="end" font-family="Arial" font-size="13">1.075</text>
<line x1="90" y1="70.0" x2="845" y2="70.0" stroke="#e8edf2"/>
<text x="78" y="75.0" text-anchor="end" font-family="Arial" font-size="13">1.097</text>
<line x1="90.0" y1="70" x2="90.0" y2="455" stroke="#f1f3f5"/>
<text x="90.0" y="480" text-anchor="middle" font-family="Arial" font-size="13">3.8e+02</text>
<line x1="241.0" y1="70" x2="241.0" y2="455" stroke="#f1f3f5"/>
<text x="241.0" y="480" text-anchor="middle" font-family="Arial" font-size="13">8.8e+02</text>
<line x1="392.0" y1="70" x2="392.0" y2="455" stroke="#f1f3f5"/>
<text x="392.0" y="480" text-anchor="middle" font-family="Arial" font-size="13">1.4e+03</text>
<line x1="543.0" y1="70" x2="543.0" y2="455" stroke="#f1f3f5"/>
<text x="543.0" y="480" text-anchor="middle" font-family="Arial" font-size="13">1.9e+03</text>
<line x1="694.0" y1="70" x2="694.0" y2="455" stroke="#f1f3f5"/>
<text x="694.0" y="480" text-anchor="middle" font-family="Arial" font-size="13">2.4e+03</text>
<line x1="845.0" y1="70" x2="845.0" y2="455" stroke="#f1f3f5"/>
<text x="845.0" y="480" text-anchor="middle" font-family="Arial" font-size="13">2.9e+03</text>
<line x1="90" y1="455" x2="845" y2="455" stroke="#34495e" stroke-width="2"/>
<line x1="90" y1="70" x2="90" y2="455" stroke="#34495e" stroke-width="2"/>
<polyline points="90.0,111.8 207.0,158.8 324.0,181.2 409.0,210.8 441.0,422.9 558.0,396.7 675.0,415.2 792.0,368.6 845.0,345.9" fill="none" stroke="#1769aa" stroke-width="3"/>
<circle cx="90.0" cy="111.8" r="5" fill="#1769aa"/>
<circle cx="207.0" cy="158.8" r="5" fill="#1769aa"/>
<circle cx="324.0" cy="181.2" r="5" fill="#1769aa"/>
<circle cx="409.0" cy="210.8" r="5" fill="#1769aa"/>
<circle cx="441.0" cy="422.9" r="5" fill="#1769aa"/>
<circle cx="558.0" cy="396.7" r="5" fill="#1769aa"/>
<circle cx="675.0" cy="415.2" r="5" fill="#1769aa"/>
<circle cx="792.0" cy="368.6" r="5" fill="#1769aa"/>
<circle cx="845.0" cy="345.9" r="5" fill="#1769aa"/>
<circle cx="90" cy="518" r="5" fill="#1769aa"/>
<text x="102" y="523" font-family="Arial" font-size="13">Treino</text>
<polyline points="90.0,212.1 207.0,206.0 324.0,179.6 409.0,229.9 441.0,115.6 558.0,102.1 675.0,182.3 792.0,193.2 845.0,224.0" fill="none" stroke="#e07a26" stroke-width="3"/>
<circle cx="90.0" cy="212.1" r="5" fill="#e07a26"/>
<circle cx="207.0" cy="206.0" r="5" fill="#e07a26"/>
<circle cx="324.0" cy="179.6" r="5" fill="#e07a26"/>
<circle cx="409.0" cy="229.9" r="5" fill="#e07a26"/>
<circle cx="441.0" cy="115.6" r="5" fill="#e07a26"/>
<circle cx="558.0" cy="102.1" r="5" fill="#e07a26"/>
<circle cx="675.0" cy="182.3" r="5" fill="#e07a26"/>
<circle cx="792.0" cy="193.2" r="5" fill="#e07a26"/>
<circle cx="845.0" cy="224.0" r="5" fill="#e07a26"/>
<circle cx="305" cy="518" r="5" fill="#e07a26"/>
<text x="317" y="523" font-family="Arial" font-size="13">Validação</text>
<text x="450.0" y="492" text-anchor="middle" font-family="Arial" font-size="15">Passo do otimizador</text>
<text x="22" y="270.0" text-anchor="middle" transform="rotate(-90 22 270.0)" font-family="Arial" font-size="15">Loss</text>
</svg>
