<svg xmlns="http://www.w3.org/2000/svg" width="900" height="540" viewBox="0 0 900 540">
<rect width="100%" height="100%" fill="white"/>
<text x="450.0" y="35" text-anchor="middle" font-family="Arial" font-size="20" font-weight="bold">start512_lr3e5: loss por passo</text>
<line x1="90" y1="455.0" x2="845" y2="455.0" stroke="#e8edf2"/>
<text x="78" y="460.0" text-anchor="end" font-family="Arial" font-size="13">1.015</text>
<line x1="90" y1="378.0" x2="845" y2="378.0" stroke="#e8edf2"/>
<text x="78" y="383.0" text-anchor="end" font-family="Arial" font-size="13">1.036</text>
<line x1="90" y1="301.0" x2="845" y2="301.0" stroke="#e8edf2"/>
<text x="78" y="306.0" text-anchor="end" font-family="Arial" font-size="13">1.057</text>
<line x1="90" y1="224.0" x2="845" y2="224.0" stroke="#e8edf2"/>
<text x="78" y="229.0" text-anchor="end" font-family="Arial" font-size="13">1.079</text>
<line x1="90" y1="147.0" x2="845" y2="147.0" stroke="#e8edf2"/>
<text x="78" y="152.0" text-anchor="end" font-family="Arial" font-size="13">1.100</text>
<line x1="90" y1="70.0" x2="845" y2="70.0" stroke="#e8edf2"/>
<text x="78" y="75.0" text-anchor="end" font-family="Arial" font-size="13">1.121</text>
<line x1="90.0" y1="70" x2="90.0" y2="455" stroke="#f1f3f5"/>
<text x="90.0" y="480" text-anchor="middle" font-family="Arial" font-size="13">1.3e+02</text>
<line x1="241.0" y1="70" x2="241.0" y2="455" stroke="#f1f3f5"/>
<text x="241.0" y="480" text-anchor="middle" font-family="Arial" font-size="13">3.1e+02</text>
<line x1="392.0" y1="70" x2="392.0" y2="455" stroke="#f1f3f5"/>
<text x="392.0" y="480" text-anchor="middle" font-family="Arial" font-size="13">4.9e+02</text>
<line x1="543.0" y1="70" x2="543.0" y2="455" stroke="#f1f3f5"/>
<text x="543.0" y="480" text-anchor="middle" font-family="Arial" font-size="13">6.7e+02</text>
<line x1="694.0" y1="70" x2="694.0" y2="455" stroke="#f1f3f5"/>
<text x="694.0" y="480" text-anchor="middle" font-family="Arial" font-size="13">8.4e+02</text>
<line x1="845.0" y1="70" x2="845.0" y2="455" stroke="#f1f3f5"/>
<text x="845.0" y="480" text-anchor="middle" font-family="Arial" font-size="13">1e+03</text>
<line x1="90" y1="455" x2="845" y2="455" stroke="#34495e" stroke-width="2"/>
<line x1="90" y1="70" x2="90" y2="455" stroke="#34495e" stroke-width="2"/>
<polyline points="90.0,102.1 197.9,176.2 305.7,205.8 413.6,234.9 521.4,422.9 629.3,380.2 737.1,376.0 845.0,417.5" fill="none" stroke="#1769aa" stroke-width="3"/>
<circle cx="90.0" cy="102.1" r="5" fill="#1769aa"/>
<circle cx="197.9" cy="176.2" r="5" fill="#1769aa"/>
<circle cx="305.7" cy="205.8" r="5" fill="#1769aa"/>
<circle cx="413.6" cy="234.9" r="5" fill="#1769aa"/>
<circle cx="521.4" cy="422.9" r="5" fill="#1769aa"/>
<circle cx="629.3" cy="380.2" r="5" fill="#1769aa"/>
<circle cx="737.1" cy="376.0" r="5" fill="#1769aa"/>
<circle cx="845.0" cy="417.5" r="5" fill="#1769aa"/>
<circle cx="90" cy="518" r="5" fill="#1769aa"/>
<text x="102" y="523" font-family="Arial" font-size="13">Treino</text>
<polyline points="90.0,168.9 197.9,205.5 305.7,202.3 413.6,137.6 521.4,183.5 629.3,218.0 737.1,295.9 845.0,211.5" fill="none" stroke="#e07a26" stroke-width="3"/>
<circle cx="90.0" cy="168.9" r="5" fill="#e07a26"/>
<circle cx="197.9" cy="205.5" r="5" fill="#e07a26"/>
<circle cx="305.7" cy="202.3" r="5" fill="#e07a26"/>
<circle cx="413.6" cy="137.6" r="5" fill="#e07a26"/>
<circle cx="521.4" cy="183.5" r="5" fill="#e07a26"/>
<circle cx="629.3" cy="218.0" r="5" fill="#e07a26"/>
<circle cx="737.1" cy="295.9" r="5" fill="#e07a26"/>
<circle cx="845.0" cy="211.5" r="5" fill="#e07a26"/>
<circle cx="305" cy="518" r="5" fill="#e07a26"/>
<text x="317" y="523" font-family="Arial" font-size="13">Validação</text>
<text x="450.0" y="492" text-anchor="middle" font-family="Arial" font-size="15">Passo do otimizador</text>
<text x="22" y="270.0" text-anchor="middle" transform="rotate(-90 22 270.0)" font-family="Arial" font-size="15">Loss</text>
</svg>
